# Blender 4.2.0
# www.blender.org
o Plane.001
v 18.440250 -1.865404 -13.573684
v 23.442135 -1.865404 -13.573684
v 18.440250 -1.865404 -18.575565
v 23.442135 -1.865404 -18.575565
vn -0.0000 1.0000 -0.0000
vt 0.015023 0.987706
vt 0.015023 0.730659
vt 0.272070 0.730659
vt 0.272070 0.987706
s 0
f 1/1/1 2/2/1 4/3/1 3/4/1
o Plane.003
v 62.778469 -1.152255 -108.979996
v 64.134216 -1.152255 -104.165352
v 67.593109 -1.152255 -110.335747
v 68.948860 -1.152255 -105.521103
vn -0.0000 1.0000 -0.0000
vt 0.654153 0.973091
vt 0.654153 0.761334
vt 0.814506 0.761334
vt 0.814506 0.973091
s 0
f 5/5/2 6/6/2 8/7/2 7/8/2
o Plane.004
v 29.914024 -1.516091 -66.750420
v 32.015045 -1.516091 -62.211197
v 34.453247 -1.516091 -68.851440
v 36.554268 -1.516091 -64.312218
vn -0.0000 1.0000 -0.0000
vt 0.018825 0.731119
vt 0.018825 0.477308
vt 0.276252 0.477308
vt 0.276252 0.731119
s 0
f 9/9/3 10/10/3 12/11/3 11/12/3
o Plane.005
v 20.141422 -1.152255 -185.450363
v 22.706976 -1.152255 -181.156570
v 24.435228 -1.152255 -188.015915
v 27.000782 -1.152255 -183.722122
vn -0.0000 1.0000 -0.0000
vt 0.654153 0.973091
vt 0.654153 0.761334
vt 0.814506 0.761334
vt 0.814506 0.973091
s 0
f 13/13/4 14/14/4 16/15/4 15/16/4
o Plane.006
v -42.951618 -1.516091 -290.607758
v -39.389145 -1.516091 -287.096680
v -46.462692 -1.516091 -287.045288
v -42.900219 -1.516091 -283.534210
vn -0.0000 1.0000 -0.0000
vt 0.018825 0.731119
vt 0.276252 0.731119
vt 0.276252 0.477308
vt 0.018825 0.477308
s 0
f 17/17/5 19/18/5 20/19/5 18/20/5
o Plane.007
v -139.710953 -1.763558 -191.645844
v -138.636703 -1.763558 -196.531006
v -144.596115 -1.763558 -192.720093
v -143.521866 -1.763558 -197.605255
vn -0.0000 1.0000 -0.0000
vt 0.654153 0.973091
vt 0.654153 0.761334
vt 0.814506 0.761334
vt 0.814506 0.973091
s 0
f 21/21/6 22/22/6 24/23/6 23/24/6
o Plane.008
v -133.669785 -1.401912 -6.087341
v -134.729126 -1.401912 -10.975760
v -128.781372 -1.401912 -7.146677
v -129.840714 -1.401912 -12.035095
vn -0.0000 1.0000 -0.0000
vt 0.018825 0.731119
vt 0.276252 0.731119
vt 0.276252 0.477308
vt 0.018825 0.477308
s 0
f 25/25/7 27/26/7 28/27/7 26/28/7
