# Blender 4.2.0
# www.blender.org
o Plane.002
v 42.618690 -1.152255 -4.964131
v 37.809990 -1.152255 -3.587459
v 43.995361 -1.152255 -0.155430
v 39.186661 -1.152255 1.221242
vn -0.0000 1.0000 -0.0000
vt 0.654153 0.973091
vt 0.654153 0.761334
vt 0.814506 0.761334
vt 0.814506 0.973091
s 0
f 1/1/1 2/2/1 4/3/1 3/4/1
o Plane.009
v 119.832771 -1.188771 -32.615368
v 115.905998 -1.188771 -29.517105
v 122.931038 -1.188771 -28.688591
v 119.004265 -1.188771 -25.590326
vn -0.0000 1.0000 -0.0000
vt 0.018825 0.731119
vt 0.018825 0.477308
vt 0.276252 0.477308
vt 0.276252 0.731119
s 0
f 5/5/2 6/6/2 8/7/2 7/8/2
o Plane.010
v 169.735947 -1.812317 -3.699541
v 167.029648 -1.812317 -7.906052
v 165.529434 -1.812317 -0.993234
v 162.823135 -1.812317 -5.199744
vn -0.0000 1.0000 -0.0000
vt 0.018825 0.731119
vt 0.018825 0.477308
vt 0.276252 0.477308
vt 0.276252 0.731119
s 0
f 9/9/3 10/10/3 12/11/3 11/12/3
o Plane.011
v 42.277218 -1.558205 100.351532
v 43.248241 -1.558205 95.444809
v 37.370495 -1.558205 99.380508
v 38.341518 -1.558205 94.473785
vn -0.0000 1.0000 -0.0000
vt 0.015023 0.987706
vt 0.015023 0.730659
vt 0.272070 0.730659
vt 0.272070 0.987706
s 0
f 13/13/4 14/14/4 16/15/4 15/16/4
o Plane.012
v -26.296366 -1.774478 109.599152
v -21.436769 -1.774478 110.783699
v -27.480909 -1.774478 114.458748
v -22.621313 -1.774478 115.643295
vn -0.0000 1.0000 -0.0000
vt 0.018825 0.731119
vt 0.276252 0.731119
vt 0.276252 0.477308
vt 0.018825 0.477308
s 0
f 17/17/5 19/18/5 20/19/5 18/20/5
o Plane.013
v -209.415176 -1.823599 125.089287
v -208.444153 -1.823599 120.182564
v -214.321899 -1.823599 124.118263
v -213.350876 -1.823599 119.211540
vn -0.0000 1.0000 -0.0000
vt 0.015023 0.987706
vt 0.015023 0.730659
vt 0.272070 0.730659
vt 0.272070 0.987706
s 0
f 21/21/6 22/22/6 24/23/6 23/24/6
o Plane.015
v -250.800674 -1.503954 35.060989
v -249.794601 -1.503954 39.960648
v -245.901016 -1.503954 34.054916
v -244.894943 -1.503954 38.954575
vn -0.0000 1.0000 -0.0000
vt 0.015023 0.987706
vt 0.015023 0.730659
vt 0.272070 0.730659
vt 0.272070 0.987706
s 0
f 25/25/7 26/26/7 28/27/7 27/28/7
o Plane.014
v -98.779823 -2.524780 138.725449
v -102.175774 -2.524780 135.053070
v -102.452202 -2.524780 142.121399
v -105.848152 -2.524780 138.449020
vn -0.0000 1.0000 -0.0000
vt 0.015023 0.987706
vt 0.015023 0.730659
vt 0.272070 0.730659
vt 0.272070 0.987706
s 0
f 29/29/8 30/30/8 32/31/8 31/32/8
o Plane.031
v -59.838348 -2.524781 149.007217
v -59.257961 -2.524781 144.039124
v -64.806450 -2.524781 148.426819
v -64.226059 -2.524781 143.458725
vn -0.0000 1.0000 -0.0000
vt 0.015023 0.987706
vt 0.015023 0.730659
vt 0.272070 0.730659
vt 0.272070 0.987706
s 0
f 33/33/9 34/34/9 36/35/9 35/36/9
